<svg xmlns="http://www.w3.org/2000/svg" width="1080" height="450" viewBox="0 0 1080 450" role="img" aria-labelledby="title desc">
  <title id="title">精選收藏品</title>
  <desc id="desc">日拍大師收藏品拍賣展示橫幅</desc>
  <defs>
    <linearGradient id="bg" x1="0" y1="0" x2="1" y2="1">
      <stop offset="0" stop-color="#111827"/>
      <stop offset="1" stop-color="#4338ca"/>
    </linearGradient>
    <linearGradient id="card" x1="0" y1="0" x2="0" y2="1">
      <stop offset="0" stop-color="#ffffff" stop-opacity="0.98"/>
      <stop offset="1" stop-color="#e0e7ff" stop-opacity="0.92"/>
    </linearGradient>
  </defs>
  <rect width="1080" height="450" rx="24" fill="url(#bg)"/>
  <circle cx="920" cy="80" r="150" fill="#818cf8" opacity="0.22"/>
  <circle cx="1010" cy="410" r="220" fill="#c4b5fd" opacity="0.13"/>
  <g transform="translate(610 52) rotate(-5 170 170)">
    <rect x="0" y="0" width="220" height="330" rx="22" fill="url(#card)"/>
    <rect x="24" y="28" width="172" height="178" rx="16" fill="#c7d2fe"/>
    <circle cx="110" cy="108" r="54" fill="#4f46e5"/>
    <path d="M79 132l31-62 31 62z" fill="#fef3c7"/>
    <rect x="32" y="232" width="156" height="14" rx="7" fill="#6366f1" opacity="0.5"/>
    <rect x="32" y="260" width="112" height="12" rx="6" fill="#94a3b8" opacity="0.55"/>
  </g>
  <g transform="translate(805 78) rotate(7 120 150)">
    <rect x="0" y="0" width="185" height="290" rx="20" fill="#ffffff" opacity="0.94"/>
    <rect x="22" y="24" width="141" height="150" rx="14" fill="#fde68a"/>
    <rect x="62" y="54" width="62" height="88" rx="14" fill="#f59e0b"/>
    <rect x="30" y="204" width="125" height="13" rx="6" fill="#4338ca" opacity="0.45"/>
    <rect x="30" y="231" width="92" height="11" rx="6" fill="#94a3b8" opacity="0.55"/>
  </g>
  <g fill="#ffffff" font-family="system-ui, -apple-system, BlinkMacSystemFont, 'Segoe UI', sans-serif">
    <text x="78" y="145" font-size="28" font-weight="600" letter-spacing="4">日拍大師</text>
    <text x="78" y="218" font-size="54" font-weight="800">精選收藏品</text>
    <text x="78" y="270" font-size="25" opacity="0.82">讓珍藏在日本拍賣市場遇見真正懂它的買家</text>
  </g>
  <rect x="78" y="314" width="188" height="54" rx="27" fill="#ffffff"/>
  <text x="172" y="349" text-anchor="middle" fill="#3730a3" font-size="21" font-weight="700" font-family="system-ui, sans-serif">查看競標案例</text>
</svg>
