<svg xmlns="http://www.w3.org/2000/svg" width="1080" height="450" viewBox="0 0 1080 450" role="img" aria-labelledby="title desc">
  <title id="title">安心交易流程</title>
  <desc id="desc">日拍大師安心交易流程展示橫幅</desc>
  <defs>
    <linearGradient id="bg" x1="0" y1="0" x2="1" y2="1">
      <stop offset="0" stop-color="#064e3b"/>
      <stop offset="1" stop-color="#0f766e"/>
    </linearGradient>
  </defs>
  <rect width="1080" height="450" rx="24" fill="url(#bg)"/>
  <circle cx="985" cy="65" r="170" fill="#5eead4" opacity="0.16"/>
  <circle cx="870" cy="430" r="210" fill="#99f6e4" opacity="0.11"/>
  <g transform="translate(620 83)" font-family="system-ui, sans-serif">
    <path d="M68 73h238M68 143h238M68 213h238" stroke="#99f6e4" stroke-width="8" stroke-linecap="round" opacity="0.55"/>
    <g>
      <circle cx="68" cy="73" r="39" fill="#ecfdf5"/>
      <path d="M49 73l13 13 26-29" fill="none" stroke="#059669" stroke-width="9" stroke-linecap="round" stroke-linejoin="round"/>
      <rect x="126" y="49" width="192" height="48" rx="16" fill="#ffffff" opacity="0.94"/>
      <text x="222" y="80" text-anchor="middle" fill="#065f46" font-size="20" font-weight="700">確認商品資訊</text>
    </g>
    <g>
      <circle cx="68" cy="143" r="39" fill="#ecfdf5"/>
      <path d="M49 143l13 13 26-29" fill="none" stroke="#059669" stroke-width="9" stroke-linecap="round" stroke-linejoin="round"/>
      <rect x="126" y="119" width="192" height="48" rx="16" fill="#ffffff" opacity="0.94"/>
      <text x="222" y="150" text-anchor="middle" fill="#065f46" font-size="20" font-weight="700">日本拍賣上架</text>
    </g>
    <g>
      <circle cx="68" cy="213" r="39" fill="#ecfdf5"/>
      <path d="M49 213l13 13 26-29" fill="none" stroke="#059669" stroke-width="9" stroke-linecap="round" stroke-linejoin="round"/>
      <rect x="126" y="189" width="192" height="48" rx="16" fill="#ffffff" opacity="0.94"/>
      <text x="222" y="220" text-anchor="middle" fill="#065f46" font-size="20" font-weight="700">成交結算付款</text>
    </g>
  </g>
  <g fill="#ffffff" font-family="system-ui, -apple-system, BlinkMacSystemFont, 'Segoe UI', sans-serif">
    <text x="78" y="135" font-size="28" font-weight="600" letter-spacing="4">透明、可靠</text>
    <text x="78" y="210" font-size="54" font-weight="800">安心交易流程</text>
    <text x="78" y="262" font-size="25" opacity="0.86">每個階段清楚可追蹤，放心交付您的珍藏</text>
  </g>
  <rect x="78" y="308" width="188" height="54" rx="27" fill="#ffffff"/>
  <text x="172" y="343" text-anchor="middle" fill="#065f46" font-size="21" font-weight="700" font-family="system-ui, sans-serif">開始委託</text>
</svg>
